<svg xmlns="http://www.w3.org/2000/svg" width="24" height="24" viewBox="0 0 24 24">
    <g fill="none" fill-rule="evenodd">
        <path d="M0 0h24v24H0z"/>
        <path fill="#F80" fill-rule="nonzero" d="M23.64 14.905c-1.602 6.429-8.114 10.342-14.544 8.738C2.669 22.041-1.244 15.528.359 9.1 1.962 2.67 8.473-1.244 14.902.36c6.43 1.603 10.342 8.116 8.739 14.546z"/>
        <path fill="#FFF" fill-rule="nonzero" d="M17.29 10.292c.238-1.597-.977-2.456-2.64-3.028l.54-2.164-1.317-.328-.526 2.106a55.083 55.083 0 0 0-1.055-.248l.53-2.12-1.317-.328-.54 2.162a44.05 44.05 0 0 1-.84-.197l.001-.007-1.816-.453-.35 1.406s.977.224.956.238c.534.133.63.486.614.766l-1.478 5.926c-.065.162-.23.405-.603.312.013.02-.957-.239-.957-.239l-.654 1.508 1.714.427c.318.08.63.163.938.242l-.545 2.188 1.316.328.54-2.164c.359.097.707.187 1.049.272l-.538 2.155 1.317.328.545-2.184c2.245.425 3.933.253 4.644-1.778.573-1.635-.028-2.578-1.21-3.193.86-.198 1.509-.764 1.682-1.933zm-3.01 4.219c-.406 1.635-3.16.75-4.052.53l.723-2.9c.893.223 3.755.664 3.33 2.37zm.408-4.243c-.371 1.487-2.663.732-3.406.547l.656-2.63c.743.186 3.137.532 2.75 2.083z"/>
    </g>
</svg>
