<svg xmlns="http://www.w3.org/2000/svg" width="64" height="64" viewBox="0 0 64 64">
    <defs>
        <linearGradient id="a" x1="0%" y1="0%" y2="100%">
            <stop offset="0%" stop-color="#F0A"/>
            <stop offset="52.982%" stop-color="#9C42F5"/>
            <stop offset="100%" stop-color="#5D2DE1"/>
        </linearGradient>
    </defs>
    <g fill="none" fill-rule="nonzero">
        <path fill="url(#a)" d="M6.857 31.989C6.846 18.103 18.103 6.857 31.977 6.857S57.11 18.103 57.12 31.99c0 13.874-11.257 25.131-25.131 25.131-13.886 0-25.132-11.257-25.132-25.131M31.977 0C14.32 0 0 14.32 0 31.989c0 17.657 14.32 31.988 31.989 31.988 17.668 0 31.988-14.32 31.988-31.988C63.977 14.32 49.646 0 31.977 0"/>
        <path fill="#FFF" d="M31.989 53.28L17.817 24.114H46.16L31.989 53.28zm-10.56-26.903l10.56 21.737 10.56-21.737h-21.12z"/>
        <path fill="#FFF" d="M31.989 40.263L20.09 15.794h23.783L31.99 40.263zm-8.286-22.217l8.286 17.051 8.285-17.051H23.703z"/>
    </g>
</svg>
