<svg xmlns="http://www.w3.org/2000/svg" width="64" height="64" viewBox="0 0 64 64">
    <defs>
        <linearGradient id="a" x1="0%" y1="0%" y2="100%">
            <stop offset="0%" stop-color="#F0A"/>
            <stop offset="52.982%" stop-color="#9C42F5"/>
            <stop offset="100%" stop-color="#5D2DE1"/>
        </linearGradient>
    </defs>
    <g fill="none" fill-rule="nonzero">
        <path fill="url(#a)" d="M6.857 31.989C6.846 18.103 18.103 6.857 31.977 6.857S57.11 18.103 57.12 31.99c0 13.874-11.257 25.131-25.131 25.131-13.886 0-25.132-11.257-25.132-25.131M31.977 0C14.32 0 0 14.32 0 31.989c0 17.657 14.32 31.988 31.989 31.988 17.668 0 31.988-14.32 31.988-31.988C63.977 14.32 49.646 0 31.977 0"/>
        <g fill="#141029" fill-opacity=".8">
            <path d="M46.091 46c-.685 0-1.382-.011-2.068 0a.672.672 0 0 1-.514-.206c-2.012-2.045-4.035-4.08-6.058-6.125-.56-.56-1.085-1.155-1.68-1.68-2.297-1.989-5.68-1.909-7.84.24-2.491 2.48-4.948 5.005-7.417 7.508a.766.766 0 0 1-.605.263c-1.383-.011-2.755 0-4.138-.011-.091 0-.228.057-.262-.069-.035-.091.08-.149.148-.217 2.08-2.103 4.172-4.206 6.252-6.309 1.154-1.165 2.308-2.343 3.462-3.508 1.612-1.623 3.543-2.583 5.829-2.766 2.88-.24 5.349.709 7.383 2.743 2.891 2.903 5.771 5.817 8.651 8.731.377.377.755.766 1.12 1.155.057.057.149.102.115.194-.046.091-.149.057-.218.057h-2.16zM17.931 17.977c.675 0 1.338.012 2.012 0 .263-.011.457.08.64.263 2.446 2.469 4.891 4.949 7.337 7.406 1.109 1.12 2.48 1.68 4.046 1.691 1.554.012 2.925-.526 4.034-1.634 2.446-2.457 4.891-4.914 7.326-7.394.228-.229.457-.343.788-.343 1.337.023 2.675.011 4.012.011.091 0 .228-.057.274.057.046.103-.091.172-.16.24-2.606 2.64-5.223 5.269-7.829 7.909-.8.811-1.554 1.657-2.422 2.4-1.555 1.337-3.36 2.091-5.418 2.217-2.845.171-5.245-.8-7.245-2.811-2.423-2.435-4.846-4.88-7.257-7.326-.789-.8-1.578-1.6-2.366-2.412-.057-.068-.183-.125-.149-.217.046-.114.172-.068.275-.068.697.011 1.405.011 2.102.011z"/>
        </g>
    </g>
</svg>
