<svg xmlns="http://www.w3.org/2000/svg" width="64" height="64" viewBox="0 0 64 64">
    <defs>
        <linearGradient id="a" x1="0%" y1="0%" y2="100%">
            <stop offset="0%" stop-color="#F0A"/>
            <stop offset="52.982%" stop-color="#9C42F5"/>
            <stop offset="100%" stop-color="#5D2DE1"/>
        </linearGradient>
    </defs>
    <g fill="none" fill-rule="nonzero">
        <path fill="url(#a)" d="M6.857 31.989C6.846 18.103 18.103 6.857 31.977 6.857S57.11 18.103 57.12 31.99c0 13.874-11.257 25.131-25.131 25.131-13.886 0-25.132-11.257-25.132-25.131M31.977 0C14.32 0 0 14.32 0 31.989c0 17.657 14.32 31.988 31.989 31.988 17.668 0 31.988-14.32 31.988-31.988C63.977 14.32 49.646 0 31.977 0"/>
        <path fill="#FFF" d="M37.966 21.36l.765-7.063L36 14l-.743 6.846a394.39 394.39 0 0 0-2.194-.412l.731-6.823-2.731-.297-.709 6.629c-4.651-.846-8.811-1.577-8.811-1.577L17.84 22.56s14.983 2.366 17.966 2.983c2.983.628 5.108 4.48 2.891 8.24-2.217 3.76-6.183 7.268-13.383 6.788l6.892-13.634-6.503-1.2-8.766 16.572s3.417 1.028 8.983 1.131l-.674 6.251 2.731.298.709-6.572a53.487 53.487 0 0 0 2.251-.126l-.766 7.086 2.732.297.834-7.714c8.629-1.577 13.017-9.429 13.303-13.12.274-3.817-2.949-7.223-9.074-8.48z"/>
    </g>
</svg>
