<svg xmlns="http://www.w3.org/2000/svg" width="64" height="64" viewBox="0 0 64 64">
    <defs>
        <linearGradient id="a" x1="0%" y1="0%" y2="100%">
            <stop offset="0%" stop-color="#F0A"/>
            <stop offset="52.982%" stop-color="#9C42F5"/>
            <stop offset="100%" stop-color="#5D2DE1"/>
        </linearGradient>
    </defs>
    <g fill="none" fill-rule="nonzero">
        <path fill="url(#a)" d="M6.857 31.989C6.846 18.103 18.103 6.857 31.977 6.857S57.11 18.103 57.12 31.99c0 13.874-11.257 25.131-25.131 25.131-13.886 0-25.132-11.257-25.132-25.131M31.977 0C14.32 0 0 14.32 0 31.989c0 17.657 14.32 31.988 31.989 31.988 17.668 0 31.988-14.32 31.988-31.988C63.977 14.32 49.646 0 31.977 0"/>
        <g fill="#FFF">
            <path d="M32 11.909c.057.057.103.114.16.171l11.474 11.474.115.115c.08.08.08.091 0 .182l-.069.069-4.034 4.034c-.172.172-.172.172-.355 0l-7.142-7.143c-.195-.194-.16-.194-.355 0l-7.131 7.132c-.183.183-.16.194-.354 0l-4.012-4.012c-.183-.182-.183-.182 0-.365L31.783 12.08c.057-.057.114-.103.16-.183.023.012.046.012.057.012zM51.257 31.223c-.057.046-.114.103-.16.148l-4.011 4.012-.092.091c-.08.08-.091.08-.171 0l-.057-.057-4.08-4.08c-.149-.148-.149-.148 0-.308l4.045-4.046c.172-.172.172-.172.355.011l4.011 4.012c.057.057.114.103.16.148v.069zM43.817 38.617c0 .034-.023.046-.034.069l-.103.103L32.149 50.32c-.172.171-.149.183-.332 0L20.274 38.777c-.16-.16-.16-.148 0-.308 1.349-1.349 2.709-2.698 4.057-4.058.16-.16.16-.16.32 0l7.155 7.155c.183.183.16.183.343 0l7.131-7.132c.206-.205.183-.205.389 0l4.011 4.012.103.103c.011.011.034.034.034.068z"/>
            <path d="M32 26.777c.011.012.034.023.046.034l.091.092 4.126 4.126c.16.16.16.16 0 .32l-4.137 4.137c-.137.137-.137.137-.275 0l-4.16-4.16-.068-.069c-.057-.046-.057-.103 0-.148l.068-.069 4.16-4.16c.046-.034.069-.091.149-.103zM17.074 35.509c-.045 0-.068-.012-.091-.023-.034-.035-.08-.069-.114-.115l-4.035-4.034c-.16-.16-.16-.16 0-.32l4.035-4.034c.171-.172.171-.172.354 0l4.046 4.046c.148.148.148.148.011.297l-4.069 4.068c-.045.046-.091.103-.137.115z"/>
        </g>
    </g>
</svg>
