<svg xmlns="http://www.w3.org/2000/svg" width="64" height="64" viewBox="0 0 64 64">
    <defs>
        <linearGradient id="a" x1="0%" y1="0%" y2="100%">
            <stop offset="0%" stop-color="#F0A"/>
            <stop offset="52.982%" stop-color="#9C42F5"/>
            <stop offset="100%" stop-color="#5D2DE1"/>
        </linearGradient>
    </defs>
    <g fill="none" fill-rule="nonzero">
        <path fill="url(#a)" d="M6.857 31.989C6.846 18.103 18.103 6.857 31.977 6.857S57.11 18.103 57.12 31.99c0 13.874-11.257 25.131-25.131 25.131-13.886 0-25.132-11.257-25.132-25.131M31.977 0C14.32 0 0 14.32 0 31.989c0 17.657 14.32 31.988 31.989 31.988 17.668 0 31.988-14.32 31.988-31.988C63.977 14.32 49.646 0 31.977 0"/>
        <path fill="#141029" fill-opacity=".8" d="M29.566 49.234V45.04c-2.96-.137-5.829-.926-7.497-1.897l1.325-5.166c1.852 1.017 4.457 1.943 7.326 1.943 2.514 0 4.24-.971 4.24-2.731 0-1.68-1.417-2.732-4.674-3.84-4.72-1.589-7.943-3.795-7.943-8.069 0-3.886 2.731-6.926 7.451-7.851v-4.195h4.32v3.886c2.96.137 4.937.754 6.4 1.451l-1.28 4.983c-1.143-.48-3.177-1.497-6.354-1.497-2.869 0-3.794 1.234-3.794 2.469 0 1.451 1.543 2.377 5.291 3.794 5.246 1.851 7.372 4.274 7.372 8.251 0 3.932-2.778 7.28-7.852 8.16v4.503h-4.331z"/>
    </g>
</svg>
