<svg xmlns="http://www.w3.org/2000/svg" width="64" height="64" viewBox="0 0 64 64">
    <defs>
        <linearGradient id="a" x1="0%" y1="0%" y2="100%">
            <stop offset="0%" stop-color="#F0A"/>
            <stop offset="52.982%" stop-color="#9C42F5"/>
            <stop offset="100%" stop-color="#5D2DE1"/>
        </linearGradient>
    </defs>
    <g fill="none" fill-rule="nonzero">
        <path fill="url(#a)" d="M6.857 31.989C6.846 18.103 18.103 6.857 31.977 6.857S57.11 18.103 57.12 31.99c0 13.874-11.257 25.131-25.131 25.131-13.886 0-25.132-11.257-25.132-25.131M31.977 0C14.32 0 0 14.32 0 31.989c0 17.657 14.32 31.988 31.989 31.988 17.668 0 31.988-14.32 31.988-31.988C63.977 14.32 49.646 0 31.977 0"/>
        <g fill="#141029" fill-opacity=".8">
            <path d="M16.08 24.457v-6.743c0-.091-.046-.217.057-.251.08-.034.137.08.194.148 2.046 2.103 4.149 4.16 6.206 6.252 1.966 2.011 3.977 3.988 5.954 6 2.058 2.091 4.149 4.148 6.195 6.24 1.977 2.011 3.988 4 5.965 6.011.435.435.858.88 1.292 1.315.114.114.103.194-.012.297-1.805 1.748-3.92 2.96-6.308 3.703-1.794.56-3.623.685-5.474.582-1.703-.091-3.338-.548-4.903-1.234a15.08 15.08 0 0 1-5.109-3.657 15.224 15.224 0 0 1-3.383-5.897 15.344 15.344 0 0 1-.663-4.56c.023-2.96-.022-5.92-.011-8.206zM47.897 36.949c0 1.474.023 2.948-.011 4.434-.035 1.646-.012 3.28-.023 4.926 0 .057.034.148-.034.182-.069.035-.115-.057-.149-.091-2.514-2.526-5.04-5.051-7.543-7.589-1.828-1.862-3.691-3.691-5.508-5.554-2.012-2.057-4.069-4.068-6.08-6.114-1.84-1.886-3.726-3.737-5.578-5.612-.32-.32-.628-.651-.948-.971-.103-.103-.103-.183 0-.286 2.423-2.251 5.223-3.725 8.514-4.171 3.977-.537 7.623.354 10.914 2.674 2.103 1.486 3.715 3.417 4.858 5.726a15.093 15.093 0 0 1 1.508 5.36c.023.263.034.537.034.8.058 2.08.046 4.183.046 6.286z"/>
        </g>
    </g>
</svg>
