<svg xmlns="http://www.w3.org/2000/svg" width="64" height="64" viewBox="0 0 64 64">
    <defs>
        <linearGradient id="a" x1="0%" y1="0%" y2="100%">
            <stop offset="0%" stop-color="#F0A"/>
            <stop offset="52.982%" stop-color="#9C42F5"/>
            <stop offset="100%" stop-color="#5D2DE1"/>
        </linearGradient>
    </defs>
    <g fill="none" fill-rule="nonzero">
        <path fill="url(#a)" d="M6.857 31.989C6.846 18.103 18.103 6.857 31.977 6.857S57.11 18.103 57.12 31.99c0 13.874-11.257 25.131-25.131 25.131-13.886 0-25.132-11.257-25.132-25.131M31.977 0C14.32 0 0 14.32 0 31.989c0 17.657 14.32 31.988 31.989 31.988 17.668 0 31.988-14.32 31.988-31.988C63.977 14.32 49.646 0 31.977 0"/>
        <g fill="#FFF">
            <path d="M31.337 15.269c-.103.857-.16 1.588-.263 2.297-.343 2.423-.103 4.754.995 6.994 1.485 3.006 2.902 6.034 4.308 9.063.857 1.851 1.646 3.76 2.057 5.771.183.972.103 1.852-.365 2.72-1.406 2.457-3.235 4.515-5.429 6.286-.206.16-.491.206-.731.309 0-.263-.023-.549.022-.789.286-1.143.652-2.297.915-3.474.343-1.486.183-2.972-.446-4.389-1.143-2.537-2.354-5.063-3.52-7.6-1.12-2.4-2.274-4.777-2.971-7.337-.366-1.326-.629-2.686 0-3.989 1.12-2.32 2.845-4.125 4.937-5.611.08-.091.205-.126.491-.251zM20.766 18.869c0 .262.023.445 0 .605-.206 1.486-.389 2.972-.103 4.469.126.628.343 1.257.606 1.851 1.177 2.537 2.4 5.017 3.52 7.543.628 1.44 1.097 2.949 1.588 4.469.24.708.103 1.44-.263 2.114-1.097 1.931-2.56 3.554-4.285 4.96-.16.126-.366.206-.549.309-.057-.023-.08-.058-.126-.08.023-.24.057-.469.103-.675.24-.914.492-1.828.709-2.743a5.395 5.395 0 0 0-.343-3.337c-1.074-2.32-2.137-4.617-3.212-6.914-.834-1.806-1.645-3.577-2.091-5.486-.263-1.12-.08-2.137.491-3.108.892-1.463 2.035-2.663 3.395-3.68.148-.092.331-.172.56-.297zM42.149 18.971c-.058.446-.103.915-.16 1.36-.183 1.303-.286 2.663.08 3.943.285.995.731 1.955 1.142 2.903 1.223 2.72 2.538 5.406 3.703 8.114.389.915.629 1.909.812 2.903.08.469 0 1.04-.24 1.486-1.04 2.091-2.606 3.76-4.435 5.223-.125.103-.308.16-.605.308.057-.342.057-.548.103-.754.262-1.097.548-2.171.788-3.268.206-1.018 0-2.012-.446-2.949-1.074-2.32-2.171-4.651-3.234-6.971-.811-1.749-1.623-3.52-2.034-5.429-.24-1.12-.057-2.114.548-3.086.858-1.44 2.012-2.605 3.338-3.6a4.83 4.83 0 0 1 .468-.263c.092.058.114.08.172.08z"/>
        </g>
    </g>
</svg>
