<svg xmlns="http://www.w3.org/2000/svg" width="64" height="64" viewBox="0 0 64 64">
    <defs>
        <linearGradient id="a" x1="0%" y1="0%" y2="100%">
            <stop offset="0%" stop-color="#F0A"/>
            <stop offset="52.982%" stop-color="#9C42F5"/>
            <stop offset="100%" stop-color="#5D2DE1"/>
        </linearGradient>
    </defs>
    <g fill="none" fill-rule="nonzero">
        <path fill="url(#a)" d="M6.857 31.989C6.846 18.103 18.103 6.857 31.977 6.857S57.11 18.103 57.12 31.99c0 13.874-11.257 25.131-25.131 25.131-13.886 0-25.132-11.257-25.132-25.131M31.977 0C14.32 0 0 14.32 0 31.989c0 17.657 14.32 31.988 31.989 31.988 17.668 0 31.988-14.32 31.988-31.988C63.977 14.32 49.646 0 31.977 0"/>
        <path fill="#FFF" d="M27.177 15.269h9.714l-3.428 12.88 4.72-1.749.046.114-1.178 4.503-4.834 1.76-2.023 7.634h16.103l-1.657 6.183H18.857l2.629-9.897-3.726 1.349 1.223-4.595 3.726-1.394z"/>
    </g>
</svg>
