<svg xmlns="http://www.w3.org/2000/svg" width="64" height="64" viewBox="0 0 64 64">
    <defs>
        <linearGradient id="a" x1="0%" y1="0%" y2="100%">
            <stop offset="0%" stop-color="#F0A"/>
            <stop offset="52.982%" stop-color="#9C42F5"/>
            <stop offset="100%" stop-color="#5D2DE1"/>
        </linearGradient>
    </defs>
    <g fill="none" fill-rule="nonzero">
        <path fill="url(#a)" d="M6.857 31.989C6.846 18.103 18.103 6.857 31.977 6.857S57.11 18.103 57.12 31.99c0 13.874-11.257 25.131-25.131 25.131-13.886 0-25.132-11.257-25.132-25.131M31.977 0C14.32 0 0 14.32 0 31.989c0 17.657 14.32 31.988 31.989 31.988 17.668 0 31.988-14.32 31.988-31.988C63.977 14.32 49.646 0 31.977 0"/>
        <path fill="#141029" fill-opacity=".8" d="M21.874 18.709c1.417 2.457 2.8 4.834 4.149 7.177h4.354c-.651-1.143-1.268-2.229-1.92-3.372h16.194c-4.217 7.303-8.388 14.537-12.56 21.76h-.16c-4.925-8.525-9.851-17.051-14.777-25.588H12.8c2.091 3.68 4.137 7.257 6.206 10.891-2.115 1.223-4.16 2.412-6.24 3.623.628 1.12 1.211 2.183 1.897 3.257 2.091-1.2 4.137-2.377 6.206-3.566.365.503.617.995.914 1.543a2905.5 2905.5 0 0 1-6.149 3.749c.629 1.12 1.223 2.194 1.909 3.268 2.068-1.234 4.103-2.434 6.194-3.68 2.754 4.732 5.486 9.429 8.274 14.195 2.755-4.777 5.475-9.463 8.206-14.195 2.103 1.246 4.126 2.458 6.194 3.68a62.235 62.235 0 0 0 1.898-3.268c-2.058-1.257-4.092-2.503-6.149-3.76.331-.549.537-1.063.949-1.52 2.068 1.188 4.114 2.366 6.194 3.566.663-1.109 1.303-2.16 1.886-3.28-2.092-1.212-4.149-2.4-6.24-3.612 2.102-3.646 4.171-7.223 6.262-10.857-9.817-.011-19.52-.011-29.337-.011z"/>
    </g>
</svg>
