<svg xmlns="http://www.w3.org/2000/svg" width="64" height="64" viewBox="0 0 64 64">
    <defs>
        <linearGradient id="a" x1="0%" y1="0%" y2="100%">
            <stop offset="0%" stop-color="#F0A"/>
            <stop offset="52.982%" stop-color="#9C42F5"/>
            <stop offset="100%" stop-color="#5D2DE1"/>
        </linearGradient>
    </defs>
    <g fill="none" fill-rule="nonzero">
        <path fill="url(#a)" d="M6.857 31.989C6.846 18.103 18.103 6.857 31.977 6.857S57.11 18.103 57.12 31.99c0 13.874-11.257 25.131-25.131 25.131-13.886 0-25.132-11.257-25.132-25.131M31.977 0C14.32 0 0 14.32 0 31.989c0 17.657 14.32 31.988 31.989 31.988 17.668 0 31.988-14.32 31.988-31.988C63.977 14.32 49.646 0 31.977 0"/>
        <g fill="#FFF">
            <path d="M13.12 43.04c.617-1.794 1.177-3.463 1.794-5.166.057-.16.366-.308.56-.308 1.017-.035 2.046 0 3.063 0h19.977c.526 0 .777-.16.926-.686 1.109-3.28 2.263-6.56 3.406-9.84.057-.183.091-.343.183-.617H18.81A225.177 225.177 0 0 1 20.64 21.2c.057-.126.309-.251.469-.251.617-.035 1.211 0 1.828 0 8.194 0 16.389.057 24.617-.035 2.446-.034 5.04 1.852 3.989 5.44-.777 2.686-1.794 5.292-2.686 7.92-.308.892-.617 1.829-.926 2.686-1.142 3.154-3.462 5.04-6.651 5.943-.274.091-.583.091-.891.091H13.817c-.194.046-.411.046-.697.046z"/>
            <path d="M28.469 29.371a167.222 167.222 0 0 1-1.829 4.949c-.034.126-.274.217-.434.217h-13.76c-.057 0-.126-.034-.252-.091.583-1.612 1.143-3.189 1.76-4.766.057-.16.309-.309.469-.309h14.046z"/>
        </g>
    </g>
</svg>
