<svg xmlns="http://www.w3.org/2000/svg" width="64" height="64" viewBox="0 0 64 64">
    <defs>
        <linearGradient id="a" x1="0%" y1="0%" y2="100%">
            <stop offset="0%" stop-color="#F0A"/>
            <stop offset="52.982%" stop-color="#9C42F5"/>
            <stop offset="100%" stop-color="#5D2DE1"/>
        </linearGradient>
    </defs>
    <g fill="none" fill-rule="nonzero">
        <path fill="url(#a)" d="M6.857 31.989C6.846 18.103 18.103 6.857 31.977 6.857S57.11 18.103 57.12 31.99c0 13.874-11.257 25.131-25.131 25.131-13.886 0-25.132-11.257-25.132-25.131M31.977 0C14.32 0 0 14.32 0 31.989c0 17.657 14.32 31.988 31.989 31.988 17.668 0 31.988-14.32 31.988-31.988C63.977 14.32 49.646 0 31.977 0"/>
        <path fill="#141029" fill-opacity=".8" d="M46.011 28.034c.64-4.24-2.594-6.525-7.005-8.045l1.428-5.749-3.497-.869-1.394 5.6c-.926-.228-1.863-.445-2.8-.662l1.406-5.635-3.498-.868-1.428 5.748a80.826 80.826 0 0 1-2.229-.525v-.012l-4.823-1.2-.925 3.737s2.594.595 2.537.629c1.417.354 1.668 1.291 1.634 2.034l-3.943 15.726c-.171.434-.617 1.074-1.6.834.035.046-2.537-.628-2.537-.628l-1.737 4 4.549 1.131c.845.217 1.68.434 2.491.64l-1.451 5.806 3.497.868 1.428-5.748c.96.263 1.886.503 2.789.72l-1.429 5.725 3.497.869 1.452-5.806c4.72.892 10.526.457 12.331-4.72 1.509-4.308-1.211-7.44-3.211-8.48 2.286-.514 4.011-2.023 4.468-5.12m-7.988 11.2c-1.074 4.343-8.389 2-10.766 1.406l1.92-7.703c2.366.594 9.977 1.772 8.846 6.297m1.074-11.268c-.983 3.954-7.074 1.943-9.051 1.451l1.737-6.983c1.988.492 8.343 1.417 7.314 5.532"/>
    </g>
</svg>
