<svg xmlns="http://www.w3.org/2000/svg" width="165" height="24" viewBox="0 0 165 24">
    <defs>
        <linearGradient id="a" x1="35.196%" x2="60.753%" y1="33.353%" y2="76.902%">
            <stop offset="0%" stop-color="#9E579E"/>
            <stop offset="99.96%" stop-color="#3E5FA9"/>
        </linearGradient>
        <linearGradient id="b" x1="54.318%" x2="44.21%" y1="62.728%" y2="13.258%">
            <stop offset="0%" stop-color="#D74B95"/>
            <stop offset="99.96%" stop-color="#F28A2A"/>
        </linearGradient>
    </defs>
    <g fill="none" fill-rule="nonzero">
        <g fill="#141029" fill-opacity=".8">
            <path d="M90.64 6.78h3.484c.223.506.027 1.036.175 1.682 1.067-1.505 2.462-2.166 4.234-2.074 1.743.092 3.076.842 4.012 2.276.083-.024.157-.024.178-.057 1.333-2.044 3.393-2.571 5.683-2.053 2.311.525 3.375 2.222 3.484 4.397.146 2.874.036 5.757.036 8.711h-3.523c-.142-.794-.06-1.579-.068-2.358-.015-1.66 0-3.322-.006-4.981-.009-1.876-.836-2.883-2.373-2.919-1.461-.032-2.789 1.292-2.83 2.94-.053 2.095-.018 4.192-.024 6.287v1.034h-3.641v-2.613c0-1.553.003-3.102-.003-4.655-.01-1.947-.821-2.966-2.38-2.993-1.505-.026-2.794 1.307-2.83 3.029-.044 2.094-.014 4.192-.017 6.287v.948H90.64V6.78zM34.572 14.427v5.247h-3.76c-.13-.723-.14-16.865-.012-17.65.062-.027.133-.086.207-.086 3.09-.003 6.184-.137 9.269.065 2.64.172 4.945 1.944 5.697 4.255 1.132 3.475-.942 6.983-4.613 7.866-1.784.43-3.588.255-5.387.297-.432.015-.865.006-1.401.006zm.086-8.922v5.322h.803c1.286 0 2.575.056 3.858-.021 1.057-.062 2.053-.397 2.628-1.402.906-1.588-.045-3.466-1.994-3.783-1.73-.279-3.488-.062-5.295-.116zM84.184 8.403V6.806h3.582v12.868h-3.479c-.23-.435-.02-.94-.139-1.404-.121-.069-.201-.006-.275.08-2.421 2.868-7.319 2.201-9.13-1.431-1.173-2.356-1.173-4.77-.097-7.168 1.58-3.505 6.483-4.758 9.538-1.348zm.035 4.827c-.08-.48-.103-.981-.249-1.443-.563-1.802-1.937-2.445-3.324-2.341-1.704.127-2.679 1.271-2.954 3.18-.264 1.813.521 3.531 1.923 4.147.293.13.625.205.948.231 2.13.19 3.62-1.368 3.656-3.774zM57.689 8.276l.071-1.464h3.553v12.862h-3.467c-.267-.435-.012-.948-.172-1.431-.071.02-.169.02-.207.068-2.474 3.02-7.846 2.29-9.494-2.083-.788-2.092-.752-4.216.134-6.287 1.754-4.101 7.01-4.65 9.324-1.805.042.05.125.068.258.14zm.02 4.998c0-.19.024-.385-.002-.572-.196-1.398-.735-2.563-2.196-3.066-1.292-.445-2.432-.184-3.36.808-1.158 1.239-1.283 3.695-.305 5.2.827 1.277 2.495 1.755 3.905 1.109 1.493-.682 1.9-1.989 1.959-3.479zM149.858 14.036h-10.033c.054 1.217.993 2.408 2.18 2.83 1.373.485 2.795.026 4.057-1.34 1.022 0 2.09-.003 3.156.003.16 0 .32.03.48.044-.243 2.605-4.027 4.934-7.325 4.54-4.148-.495-6.927-3.885-6.4-7.805.522-3.858 4.17-6.441 8.279-5.86 3.573.503 6.207 4.002 5.606 7.588zm-9.92-2.243h6.026c-.088-1.378-1.443-2.232-2.826-2.377-1.348-.142-2.815.943-3.2 2.377zM121.102 6.797h3.455c.228.51.012 1.04.148 1.526.142.083.205-.024.273-.104 1.653-1.863 4.136-2.397 6.403-1.363 1.6.73 2.48 2.083 2.557 3.725.142 3.004.041 6.023.041 9.096h-3.582v-3.298c0-1.333.012-2.666-.006-3.997-.02-1.846-.818-2.79-2.465-2.966-1.384-.145-2.833 1.05-3.144 2.575-.207 1.025-.103 2.06-.115 3.09-.018 1.518-.006 3.035-.006 4.605h-3.562c.003-4.296.003-8.569.003-12.889zM164.273 19.7h-4.006c-.898-1.676-1.796-3.347-2.661-4.968-.575-.228-.747.107-.936.465-.786 1.49-1.583 2.975-2.389 4.492h-4.011c1.306-2.249 2.554-4.397 3.822-6.575l-3.55-6.293h4.006c.747 1.47 1.535 3.013 2.323 4.56.205.198.439.178.759.07.776-1.522 1.579-3.092 2.388-4.672h4.003c-1.215 2.16-2.38 4.222-3.568 6.335 1.239 2.145 2.492 4.3 3.82 6.587zM64.178 6.797h3.493c.199.542.02 1.067.172 1.748 1.135-1.952 2.871-2.258 4.877-2.041v3.39c-.56.16-1.081.08-1.591.082-2.409.012-3.354.954-3.357 3.375-.003 1.793 0 3.588 0 5.38v.94H64.18c-.003-4.293-.003-8.548-.003-12.874zM118.18 19.7h-3.499V6.804h3.5v12.898z"/>
        </g>
        <g fill="#5C4C86">
            <path d="M150.607 3.653h.202c.089 0 .148.015.184.05.035.033.053.093.053.181v.347c0 .089-.018.148-.053.184-.036.035-.098.053-.184.053h-.202c-.088 0-.148-.018-.183-.053-.036-.036-.054-.095-.054-.184v-.35c0-.088.018-.148.054-.18.035-.03.095-.048.183-.048zM154.4 3.94l.06.427a3.237 3.237 0 0 1-1.118.178c-.56 0-.954-.124-1.185-.376-.228-.252-.344-.688-.344-1.304 0-.616.116-1.052.344-1.306.228-.255.625-.38 1.185-.38.43 0 .782.054 1.064.163l-.086.406c-.329-.02-.616-.032-.868-.032-.368 0-.622.08-.765.243-.142.162-.213.462-.213.906 0 .442.071.744.213.907.143.163.397.243.765.243.361 0 .675-.024.948-.074zM155.33 1.567c.231-.257.626-.388 1.183-.388s.948.13 1.182.388c.23.258.346.694.346 1.307s-.115 1.046-.346 1.298c-.231.255-.625.38-1.182.38-.557 0-.949-.128-1.183-.38-.23-.255-.35-.688-.35-1.298 0-.61.12-1.049.35-1.307zm1.864.394c-.124-.162-.35-.242-.681-.242-.332 0-.56.08-.682.242-.121.163-.184.466-.184.913 0 .442.063.744.184.907.122.163.35.243.682.243.331 0 .56-.08.681-.243.122-.163.184-.465.184-.907 0-.447-.06-.753-.184-.913zM159.401 1.265l.033.492c.447-.385.874-.578 1.286-.578.441 0 .714.187.815.557.424-.37.844-.557 1.26-.557.28 0 .494.074.64.225.147.152.218.37.218.661v2.403h-.622v-2.22c-.003-.186-.041-.322-.112-.405-.072-.083-.187-.124-.356-.124a.927.927 0 0 0-.415.097c-.13.065-.323.19-.578.374v2.278h-.61v-2.22c0-.192-.036-.328-.113-.408-.074-.08-.192-.121-.355-.121a.921.921 0 0 0-.409.097 4.665 4.665 0 0 0-.58.368v2.284h-.629V1.265h.527z"/>
        </g>
        <g>
            <path fill="url(#a)" d="M28.201 12.05c-.27-.862-.699-1.65-1.256-2.337a10.667 10.667 0 0 1-1.57-2.679 13.819 13.819 0 0 1-.542-1.594c-.857-3.123-3.76-5.351-7.426-5.351h-.05c-2.957.018-5.695 1.478-7.416 3.68a12.978 12.978 0 0 1-2.377 2.34c-.044.033-.085.069-.13.101-1.42 1.111-2.548 2.56-3.227 4.202a9.174 9.174 0 0 0-.693 3.078c-.127 2.658.99 5.037 2.886 6.623 1.307 1.093 2.984 1.807 4.88 1.976.296.027.593.038.886.038.095 0 .193 0 .287-.003.146-.003.288-.005.43-.005 1.238 0 2.46.157 3.588.548.845.29 1.766.45 2.74.45h.152a9.342 9.342 0 0 0 4.444-1.233c2.477-1.401 4.309-3.863 4.658-6.66a7.408 7.408 0 0 0-.264-3.174z"/>
            <path fill="url(#b)" d="M23.526 12.993c.5-4.196-2.37-8.107-6.69-9.106a8.924 8.924 0 0 0-1.097-.186c-1.3-.145-2.575-.462-3.724-1.04a8.17 8.17 0 0 0-2.679-.803C5.106 1.336 1.081 4.1.29 8.08a7.137 7.137 0 0 0 1.061 5.378c.865 1.303 1.393 2.776 1.689 4.296.596 3.064 3.182 5.55 6.637 6.018 2.767.373 5.428-.64 7.185-2.486.7-.732 1.497-1.366 2.382-1.887 2.294-1.358 3.953-3.654 4.282-6.406z"/>
            <g fill="#120F1F">
                <path d="M17.929 15.206c-.462 1.434-2.394 1.893-3.5.696-.228-.249-.447-.506-.675-.752-.495-.54-1.12-.697-1.822-.596-.19.027-.38.053-.569.092-.924.19-1.677-.092-2.264-.83a6.838 6.838 0 0 0-.539-.595c-.495-.504-1.093-.634-1.775-.551-.447.056-.886.183-1.345.142-1.289-.122-2.166-1.467-1.763-2.693.27-.815.818-1.31 1.647-1.455.818-.143 1.49.154 2.018.79.264.32.528.644.865.887.516.37 1.1.403 1.698.293.5-.092.999-.166 1.505-.065.226.044.391.184.584.293.516.29.735.848 1.167 1.21.403.334.848.506 1.372.494.457-.009.892-.145 1.346-.169 1.531-.08 2.601 1.496 2.05 2.809zM4.655 15.39a2.098 2.098 0 0 1 3.58-.617c.204.24.402.48.624.703.492.494 1.088.67 1.766.577.311-.041.62-.1.934-.136 1.164-.136 2.26.791 2.314 1.953.056 1.247-.922 2.272-2.134 2.237-.776-.024-1.342-.41-1.798-1.008-.142-.186-.317-.355-.483-.521-.605-.599-1.345-.587-2.11-.454-.347.06-.687.125-1.049.069a2.092 2.092 0 0 1-1.644-2.803zM10.569 5.241c.441.149.74.418 1.004.735.178.21.362.415.554.614.528.542 1.17.657 1.882.554.296-.045.59-.11.886-.13a2.062 2.062 0 0 1 2.154 1.54 2.1 2.1 0 0 1-1.073 2.406 2.102 2.102 0 0 1-2.592-.58c-.13-.16-.267-.318-.403-.475-.578-.675-1.304-.898-2.17-.738-.426.08-.852.178-1.3.098a2.102 2.102 0 0 1-1.707-2.317c.143-1.105 1.135-1.917 2.223-1.825.201.02.4.044.542.118z"/>
            </g>
            <g fill="#F298B1" opacity=".6">
                <path d="M17.852 15.618c-.462 1.434-2.394 1.893-3.5.696-.228-.249-.447-.507-.675-.753-.495-.539-1.12-.696-1.822-.595-.19.027-.38.053-.57.092-.924.19-1.676-.092-2.263-.83a6.838 6.838 0 0 0-.539-.595c-.495-.504-1.093-.634-1.775-.552-.447.057-.886.184-1.345.143-1.289-.122-2.166-1.467-1.763-2.694.27-.814.818-1.31 1.647-1.454.818-.143 1.49.154 2.018.79.264.32.528.644.865.887.516.37 1.1.403 1.698.293.5-.092.999-.166 1.505-.065.226.044.391.183.584.293.516.29.735.847 1.167 1.209.403.335.848.507 1.372.495.457-.01.892-.145 1.345-.17 1.532-.076 2.599 1.5 2.05 2.81zM4.575 15.804a2.098 2.098 0 0 1 3.58-.616c.204.24.402.48.624.702.492.495 1.088.67 1.766.578.311-.041.62-.1.934-.136 1.164-.136 2.26.791 2.314 1.952.056 1.248-.922 2.273-2.134 2.237-.776-.023-1.342-.408-1.798-1.007-.142-.187-.317-.355-.483-.521-.605-.599-1.345-.587-2.11-.454-.347.06-.687.125-1.049.068a2.094 2.094 0 0 1-1.644-2.803zM10.492 5.653c.441.148.74.418 1.004.735.178.21.362.415.554.613.528.543 1.17.658 1.882.555.296-.045.59-.11.886-.13a2.062 2.062 0 0 1 2.154 1.54 2.1 2.1 0 0 1-1.073 2.406 2.102 2.102 0 0 1-2.592-.58c-.13-.16-.267-.318-.403-.475-.578-.676-1.304-.898-2.17-.738-.426.08-.853.178-1.3.098A2.102 2.102 0 0 1 7.727 7.36C7.87 6.255 8.862 5.443 9.95 5.535c.198.024.397.047.542.118z"/>
            </g>
            <g fill="#211E37">
                <path d="M17.852 15.369c-.462 1.434-2.394 1.893-3.5.696-.228-.249-.447-.506-.675-.752-.495-.54-1.12-.697-1.822-.596-.19.027-.38.053-.57.092-.924.19-1.676-.092-2.263-.83a6.838 6.838 0 0 0-.539-.595c-.495-.504-1.093-.634-1.775-.551-.447.056-.886.183-1.345.142-1.289-.122-2.166-1.467-1.763-2.694.27-.814.818-1.31 1.647-1.454.818-.143 1.49.154 2.018.79.264.32.528.644.865.887.516.37 1.1.403 1.698.293.5-.092.999-.166 1.505-.065.226.044.391.184.584.293.516.29.735.848 1.167 1.21.403.334.848.506 1.372.494.457-.009.892-.145 1.345-.169 1.532-.077 2.599 1.5 2.05 2.809zM4.575 15.556a2.098 2.098 0 0 1 3.58-.617c.204.24.402.48.624.702.492.495 1.088.67 1.766.578.311-.041.62-.1.934-.136 1.164-.136 2.26.791 2.314 1.953.056 1.247-.922 2.272-2.134 2.237-.776-.024-1.342-.41-1.798-1.008-.142-.186-.317-.355-.483-.521-.605-.599-1.345-.587-2.11-.454-.347.06-.687.125-1.049.069a2.093 2.093 0 0 1-1.644-2.803zM10.492 5.407c.441.149.74.418 1.004.735.178.21.362.415.554.614.528.542 1.17.657 1.882.554.296-.045.59-.11.886-.13a2.062 2.062 0 0 1 2.154 1.54 2.1 2.1 0 0 1-1.073 2.406 2.102 2.102 0 0 1-2.592-.58c-.13-.16-.267-.318-.403-.475-.578-.675-1.304-.898-2.17-.738-.426.08-.853.178-1.3.098a2.102 2.102 0 0 1-1.707-2.317C7.87 6.01 8.862 5.197 9.95 5.29c.198.02.397.044.542.118z"/>
            </g>
        </g>
    </g>
</svg>
