<svg xmlns="http://www.w3.org/2000/svg" width="116" height="38" viewBox="0 0 116 38">
    <g fill="none" fill-rule="evenodd">
        <path d="M-41-28h198v93H-41z"/>
        <g fill-rule="nonzero">
            <path fill="#00579F" d="M50.219 37.412H40.83L46.703.666h9.387zM84.25 1.564C82.4.821 79.462 0 75.83 0c-9.27 0-15.799 5.003-15.839 12.157-.077 5.277 4.674 8.209 8.228 9.969 3.632 1.798 4.866 2.972 4.866 4.574-.037 2.462-2.935 3.597-5.637 3.597-3.748 0-5.757-.585-8.809-1.955l-1.236-.587-1.314 8.249c2.202 1.015 6.259 1.916 10.47 1.955 9.85 0 16.264-4.926 16.34-12.549.037-4.183-2.472-7.388-7.88-10.007-3.284-1.681-5.295-2.815-5.295-4.535.039-1.564 1.701-3.166 5.408-3.166 3.052-.078 5.294.664 6.993 1.407l.849.39 1.276-7.935zM96.728 24.394c.773-2.111 3.748-10.281 3.748-10.281-.04.078.771-2.15 1.235-3.518l.656 3.166s1.778 8.796 2.164 10.633h-7.803zM108.316.666h-7.262c-2.239 0-3.94.664-4.906 3.049L82.203 37.41h9.85s1.622-4.535 1.97-5.512h12.054c.27 1.29 1.12 5.512 1.12 5.512h8.692L108.316.666zM32.99.666l-9.194 25.057-1.005-5.082c-1.7-5.864-7.03-12.234-12.98-15.402l8.422 32.134h9.927L42.917.666H32.99z"/>
            <path fill="#FAA61A" d="M15.259.666H.155L0 1.41c11.782 3.049 19.585 10.4 22.791 19.234L19.508 3.755c-.54-2.347-2.202-3.012-4.25-3.089z"/>
        </g>
    </g>
</svg>
