<svg xmlns="http://www.w3.org/2000/svg" width="106" height="37" viewBox="0 0 106 37">
    <g fill="none" fill-rule="evenodd">
        <path d="M-46-28h198v93H-46z"/>
        <g fill-rule="nonzero">
            <path fill="#00A1E9" d="M5.97 0C2.67 0 0 2.653 0 5.928v25.144C0 34.345 2.67 37 5.97 37H31.3c3.297 0 5.968-2.655 5.968-5.928v-.257c-.111-.046-9.686-4.01-14.552-6.334-3.283 4.011-7.518 6.445-11.915 6.445-7.435 0-9.96-6.46-6.44-10.713.768-.927 2.074-1.813 4.1-2.308 3.17-.774 8.216.483 12.945 2.032a25.617 25.617 0 0 0 2.1-5.093H8.932v-1.466h7.514v-2.627H7.346V9.284h9.101V5.536s0-.631.644-.631h3.674v4.38h8.997v1.466h-8.997v2.627h7.344c-.703 2.859-1.77 5.49-3.11 7.8 2.23.8 4.23 1.559 5.722 2.055 4.973 1.652 6.367 1.854 6.547 1.875V5.928C37.268 2.654 34.597 0 31.3 0H5.97zm4.087 20.047c-.32.003-.64.02-.963.052-.93.093-2.679.501-3.635 1.34-2.864 2.48-1.15 7.014 4.648 7.014 3.37 0 6.737-2.139 9.382-5.564-3.41-1.652-6.347-2.878-9.432-2.842z"/>
            <path fill="#141029" fill-opacity=".8" d="M102.085 25.721l-1.663 3.597-1.689-3.597h-1.65l2.57 4.973v3.47h1.513v-3.47l.009-.02 2.558-4.953h-1.648zm-12.18 2.176l1.173 3.502H88.69l1.215-3.502zm1.534 4.565l.565 1.7h1.586l-3.122-8.441h-1.213l-3.112 8.442h1.587l.59-1.7h3.119zm-11.835-2.705h-1.685v-2.888h1.685c.846 0 1.352.737 1.352 1.45 0 .697-.473 1.438-1.352 1.438m.085-4.036h-3.295v8.442h1.525v-3.246h1.77c1.644 0 2.793-1.069 2.793-2.598 0-1.53-1.149-2.598-2.793-2.598m-11.003 8.442h1.526v-8.442h-1.526v8.442zm-10.727-8.442v8.442h5.133v-1.15h-3.608v-7.292h-1.525zm-8.688 2.176l1.173 3.502h-2.387l1.214-3.502zm1.534 4.565l.566 1.7h1.584l-3.122-8.441h-1.211l-3.112 8.442h1.586l.59-1.7h3.12zM61.541 9.218h-6.542V6.884h7.586V5.43h-7.586V2.472h-3.381a.68.68 0 0 0-.67.69V5.43h-7.533v1.454h7.532v2.334H44.59v1.452h12.663s-.702 2.728-4.176 5.66c-3.112-2.346-4.151-4.214-4.151-4.214h-3.398c1.375 2.372 3.327 4.271 5.43 5.778-1.931 1.25-4.437 2.454-7.676 3.418v1.74s4.998-.938 9.828-3.772c4.838 2.812 9.696 3.773 9.696 3.773v-1.648c-3.11-1.127-5.573-2.366-7.507-3.562 2.802-2.067 5.258-4.872 6.242-8.625m21.25-6.455h-3.406v3.543h-8.393v1.427h8.393v12.736a.588.588 0 0 1-.55.535h-1.73v1.475h4.413a1.339 1.339 0 0 0 1.272-1.32V7.733h1.382V6.306H82.79V2.763zm-7.182 7.373a.76.76 0 0 0-.674-.43h-2.837l2.21 6.93h3.357l-2.056-6.5zm-8.38-7.54l-3.906 9.198h2.997V22.74h3.277V8.22h-1.188l2.468-5.624h-3.648zm37.996 19.642l-1.197-4.026a.623.623 0 0 0-.591-.443h-3.173l.92 3.092h-3.73v-5.99h7.325v-1.425h-7.325v-2.82h7.325V9.201H86.5v1.425h7.324v2.82H86.5v1.425h7.324v5.99H86.5v1.426h18.725l-.015-.05h.015zM90.309 5.8h10.667v2.103h3.811V5.41l-.001-.014c0-.56-.441-1.014-.987-1.023h-6.167v-1.96h-3.987v1.96h-7.146v3.529h3.81V5.8z"/>
        </g>
    </g>
</svg>
