<svg xmlns="http://www.w3.org/2000/svg" width="57" height="45" viewBox="0 0 57 45">
    <g fill="none" fill-rule="evenodd">
        <path d="M-59-24h186v93H-59c-6.627 0-12-5.373-12-12v-69c0-6.627 5.373-12 12-12z"/>
        <g fill-rule="nonzero">
            <path fill="#FFF" d="M55.583 43.705v.114h.104a.11.11 0 0 0 .058-.014.05.05 0 0 0 .02-.043.048.048 0 0 0-.02-.042.1.1 0 0 0-.058-.015h-.104zm.106-.08c.053 0 .095.013.125.037s.044.058.044.1a.115.115 0 0 1-.035.087.17.17 0 0 1-.1.042l.138.16h-.108l-.128-.159h-.042v.16h-.09v-.426h.196zm-.028.573a.36.36 0 0 0 .325-.219.366.366 0 0 0-.076-.392.35.35 0 0 0-.25-.103.358.358 0 0 0-.254.103.347.347 0 0 0-.073.114.346.346 0 0 0-.028.139c0 .05.01.096.028.14a.336.336 0 0 0 .189.19c.043.018.09.028.14.028m0-.817a.454.454 0 0 1 .327.135.45.45 0 0 1 .135.324.44.44 0 0 1-.036.178.475.475 0 0 1-.246.244.46.46 0 0 1-.513-.098.475.475 0 0 1-.098-.146.44.44 0 0 1-.037-.178.45.45 0 0 1 .283-.422.46.46 0 0 1 .184-.037m-42.778-1.639c0-.81.528-1.477 1.39-1.477.825 0 1.382.637 1.382 1.477 0 .84-.557 1.478-1.381 1.478-.863 0-1.391-.666-1.391-1.478m3.712 0v-2.307h-.997v.56c-.316-.416-.796-.676-1.448-.676-1.286 0-2.294 1.014-2.294 2.423 0 1.41 1.008 2.424 2.294 2.424.652 0 1.132-.26 1.448-.676v.56h.997v-2.308zm33.69 0c0-.81.529-1.477 1.392-1.477.825 0 1.38.637 1.38 1.477 0 .84-.555 1.478-1.38 1.478-.863 0-1.392-.666-1.392-1.478m3.714 0v-4.16H53v2.413c-.317-.416-.796-.676-1.449-.676-1.285 0-2.293 1.014-2.293 2.423 0 1.41 1.008 2.424 2.293 2.424.653 0 1.132-.26 1.449-.676v.56h.998v-2.308zM28.97 40.217c.643 0 1.055.406 1.16 1.12h-2.379c.107-.667.509-1.12 1.22-1.12m.019-.898c-1.344 0-2.284.984-2.284 2.423 0 1.468.979 2.424 2.351 2.424.69 0 1.323-.173 1.88-.646l-.489-.744a2.184 2.184 0 0 1-1.334.483c-.642 0-1.227-.3-1.371-1.13h3.405c.01-.126.02-.252.02-.387-.01-1.439-.893-2.423-2.178-2.423m12.038 2.423c0-.81.528-1.477 1.391-1.477.825 0 1.382.637 1.382 1.477 0 .84-.557 1.478-1.382 1.478-.863 0-1.39-.666-1.39-1.478m3.712 0v-2.307h-.997v.56c-.318-.416-.796-.676-1.449-.676-1.285 0-2.293 1.014-2.293 2.423 0 1.41 1.008 2.424 2.293 2.424.653 0 1.131-.26 1.449-.676v.56h.997v-2.308zm-9.343 0c0 1.4.968 2.424 2.446 2.424.69 0 1.15-.155 1.65-.55l-.48-.812c-.374.271-.767.416-1.2.416-.796-.01-1.38-.59-1.38-1.478s.584-1.467 1.38-1.477c.433 0 .826.144 1.2.415l.48-.811c-.5-.396-.96-.55-1.65-.55-1.478 0-2.446 1.023-2.446 2.423m12.854-2.423c-.575 0-.95.27-1.209.676v-.56h-.988v4.615h.998v-2.587c0-.764.326-1.188.978-1.188.202 0 .413.028.624.116l.307-.946a2.11 2.11 0 0 0-.71-.126m-26.726.483c-.48-.319-1.14-.483-1.87-.483-1.162 0-1.91.56-1.91 1.477 0 .753.557 1.217 1.583 1.362l.47.067c.548.078.806.222.806.483 0 .357-.365.56-1.046.56-.69 0-1.189-.222-1.525-.482l-.47.781c.547.406 1.238.6 1.986.6 1.324 0 2.091-.629 2.091-1.507 0-.812-.604-1.236-1.602-1.38l-.47-.07c-.431-.057-.777-.143-.777-.452 0-.339.326-.54.873-.54.585 0 1.152.221 1.43.395l.43-.811zm12.864-.483c-.575 0-.95.27-1.208.676v-.56h-.988v4.615h.997v-2.587c0-.764.326-1.188.978-1.188.202 0 .413.028.624.116l.307-.946a2.11 2.11 0 0 0-.71-.126m-8.508.116h-1.63v-1.4h-1.009v1.4h-.93v.917h.93v2.105c0 1.071.413 1.71 1.592 1.71.433 0 .931-.136 1.248-.358l-.288-.86c-.298.174-.624.261-.883.261-.498 0-.66-.31-.66-.772v-2.086h1.63v-.917zM10.974 44.05v-2.897c0-1.09-.69-1.824-1.804-1.834-.585-.01-1.189.173-1.612.82-.316-.51-.814-.82-1.515-.82-.49 0-.968.144-1.343.685v-.57h-.998v4.616H4.71v-2.559c0-.8.442-1.226 1.123-1.226.663 0 .997.434.997 1.217v2.568h1.008v-2.559c0-.8.46-1.226 1.123-1.226.68 0 1.006.434 1.006 1.217v2.568h1.008z"/>
            <path fill="#F79410" d="M56.233 29.096v-.915h-.178l-.207.628-.206-.628h-.18v.915h.127v-.69l.193.595h.132l.193-.597v.692h.126zm-1.134 0v-.76h.229v-.154h-.585v.155h.23v.759h.126z"/>
            <path fill="#FF5F00" d="M36.347 31.601h-15.11V4.267h15.11z"/>
            <path fill="#EB001B" d="M22.204 17.932c0-5.545 2.58-10.484 6.596-13.667A17.123 17.123 0 0 0 18.128.548C8.59.548.86 8.331.86 17.932c0 9.6 7.73 17.384 17.268 17.384 4.028 0 7.735-1.39 10.672-3.717a17.396 17.396 0 0 1-6.596-13.667"/>
            <path fill="#F79E1B" d="M56.725 17.932c0 9.6-7.73 17.384-17.268 17.384-4.028 0-7.735-1.39-10.673-3.717a17.393 17.393 0 0 0 6.596-13.667c0-5.545-2.579-10.484-6.596-13.667A17.129 17.129 0 0 1 39.457.548c9.537 0 17.268 7.783 17.268 17.384"/>
        </g>
    </g>
</svg>
