<svg xmlns="http://www.w3.org/2000/svg" width="59" height="37" viewBox="0 0 59 37">
    <g fill="none" fill-rule="evenodd">
        <path d="M-70-28h186c6.627 0 12 5.373 12 12v69c0 6.627-5.373 12-12 12H-70v-93z"/>
        <g fill-rule="nonzero">
            <path fill="#E21836" d="M11.432 0h14.57c2.034 0 3.3 1.678 2.825 3.744l-6.784 29.48c-.478 2.06-2.515 3.739-4.55 3.739H2.924c-2.031 0-3.299-1.68-2.824-3.738L6.886 3.744C7.36 1.678 9.396 0 11.432 0"/>
            <path fill="#00447C" d="M24.79 0h16.756c2.033 0 1.116 1.678.638 3.744L35.4 33.224c-.475 2.06-.327 3.739-2.365 3.739H16.281c-2.038 0-3.3-1.68-2.82-3.738l6.782-29.481C20.724 1.678 22.755 0 24.79 0"/>
            <path fill="#007B84" d="M40.881 0h14.57c2.037 0 3.302 1.678 2.824 3.744l-6.783 29.48c-.478 2.06-2.516 3.739-4.553 3.739H32.376c-2.038 0-3.302-1.68-2.825-3.738l6.784-29.481C36.809 1.678 38.843 0 40.88 0"/>
            <path fill="#FEFEFE" d="M15.237 9.448c-1.498.015-1.94 0-2.082-.034-.054.262-1.065 4.983-1.068 4.987-.218.955-.376 1.636-.914 2.075a1.616 1.616 0 0 1-1.076.38c-.664 0-1.051-.335-1.116-.968l-.013-.218s.203-1.279.203-1.286c0 0 1.061-4.303 1.251-4.871a.419.419 0 0 0 .015-.065c-2.065.018-2.431 0-2.457-.034-.013.047-.065.313-.065.313l-1.083 4.85-.093.41-.18 1.346c0 .399.077.725.231 1 .494.873 1.902 1.004 2.699 1.004 1.026 0 1.989-.22 2.64-.624 1.129-.675 1.424-1.73 1.688-2.67l.122-.48s1.093-4.469 1.279-5.05c.007-.033.01-.05.02-.065zm3.72 3.605c-.264 0-.745.064-1.178.28-.157.08-.305.175-.462.269l.141-.517-.077-.087c-.917.188-1.123.213-1.97.334l-.071.048c-.098.826-.186 1.446-.55 3.07-.14.598-.284 1.202-.428 1.798l.039.076a20.819 20.819 0 0 1 1.886-.033l.062-.068c.095-.497.108-.613.32-1.62.1-.478.308-1.527.41-1.9.19-.089.375-.176.553-.176.423 0 .371.374.355.523-.018.25-.172 1.066-.33 1.766l-.106.452c-.073.334-.154.66-.227.99l.032.066a20.052 20.052 0 0 1 1.848-.033l.085-.068c.133-.776.171-.984.406-2.115l.118-.52c.229-1.016.344-1.531.17-1.951-.183-.47-.623-.584-1.026-.584zm4.155 1.064c-.455.089-.746.148-1.034.186-.286.046-.565.088-1.004.15l-.035.032-.032.025c-.046.332-.078.618-.139.955-.051.349-.13.744-.26 1.313-.099.435-.15.587-.207.74-.056.153-.117.302-.229.73l.026.04.022.036c.411-.02.68-.034.956-.036.276-.01.562 0 1.005.002l.038-.032.042-.035c.064-.386.074-.49.113-.678.038-.202.105-.482.269-1.229.077-.35.164-.7.244-1.059.083-.356.17-.707.254-1.058l-.013-.043-.016-.039zm.01-1.435c-.414-.247-1.14-.169-1.628.173-.487.334-.542.808-.13 1.059.406.24 1.134.168 1.618-.176.486-.341.547-.812.14-1.056zm2.5 5.72c.836 0 1.693-.234 2.338-.926.497-.562.724-1.397.803-1.741.257-1.14.057-1.673-.194-1.997-.381-.494-1.056-.653-1.755-.653-.42 0-1.422.042-2.204.772-.562.527-.822 1.242-.978 1.927-.158.698-.34 1.955.802 2.422.352.154.86.196 1.187.196zm-.066-2.566c.193-.864.42-1.588 1.001-1.588.456 0 .489.539.286 1.405-.036.193-.202.908-.427 1.212-.157.225-.343.361-.548.361-.061 0-.424 0-.43-.546-.003-.27.052-.545.118-.844zm5.298 2.455l.065-.068c.093-.497.108-.614.314-1.62.102-.478.315-1.527.414-1.9.19-.089.372-.176.555-.176.42 0 .37.374.353.522-.016.25-.17 1.066-.33 1.767l-.1.452c-.077.335-.16.659-.233.99l.032.066c.858-.046 1.11-.046 1.845-.033l.088-.068c.13-.776.164-.984.406-2.114l.115-.52c.23-1.017.346-1.532.176-1.952-.189-.47-.631-.584-1.03-.584-.263 0-.747.064-1.177.28a7.808 7.808 0 0 0-.46.269l.132-.517-.07-.087c-.917.188-1.127.213-1.973.334l-.065.048c-.103.826-.186 1.446-.551 3.07-.139.598-.283 1.202-.427 1.799l.038.075a20.75 20.75 0 0 1 1.883-.033zm6.31.033c.053-.267.374-1.848.377-1.848 0 0 .273-1.16.29-1.202 0 0 .085-.12.171-.168h.127c1.193 0 2.54 0 3.596-.786.718-.54 1.21-1.336 1.428-2.304.057-.237.1-.52.1-.801 0-.371-.074-.738-.287-1.024-.538-.763-1.61-.777-2.848-.782l-.61.005c-1.584.02-2.22.014-2.48-.018l-.064.325-.568 2.666-1.422 5.928c1.383-.017 1.95-.017 2.19.01zm1.05-4.73l.601-2.646.02-.136.008-.104.242.025 1.273.111c.491.192.694.688.552 1.335-.129.591-.508 1.089-.994 1.329-.401.203-.893.22-1.399.22h-.327l.025-.133zm3.758 2.291c-.16.688-.343 1.945.793 2.393.362.156.687.202 1.017.185.348-.019.671-.195.97-.45l-.081.314.052.067c.817-.034 1.07-.034 1.956-.028l.08-.061c.13-.77.251-1.517.587-2.989.164-.704.327-1.403.495-2.105l-.026-.077c-.914.171-1.159.208-2.038.334l-.067.055-.026.21a1.26 1.26 0 0 0-.641-.534c-.391-.156-1.31.045-2.099.772-.555.52-.821 1.232-.972 1.914zm1.92.042c.195-.848.42-1.565 1.002-1.565.369 0 .563.344.523.93-.031.147-.065.3-.105.475-.058.252-.121.502-.183.752a1.833 1.833 0 0 1-.215.44c-.15.215-.506.349-.712.349-.058 0-.417 0-.43-.537-.003-.267.052-.542.12-.844zm10.025-2.8l-.07-.081c-.905.185-1.069.215-1.9.328l-.06.062c-.004.01-.006.025-.01.04l-.003-.015c-.619 1.445-.6 1.134-1.104 2.271l-.006-.14-.126-2.465-.08-.081c-.947.185-.97.215-1.844.328l-.068.062c-.01.03-.01.062-.016.097l.006.013c.11.565.083.44.193 1.332.051.438.12.88.17 1.312.087.724.135 1.081.24 2.186-.59.988-.73 1.361-1.3 2.227l.004.01-.4.64c-.046.068-.087.114-.146.134a.598.598 0 0 1-.262.038h-.222l-.33 1.11 1.132.02c.664-.002 1.082-.317 1.307-.74l.711-1.234h-.011l.075-.087c.479-1.043 4.12-7.367 4.12-7.367zm-11.945 14.59h-.48l1.777-5.95h.59l.186-.614.018.682c-.022.421.306.795 1.166.733h.995l.342-1.146h-.374c-.216 0-.315-.055-.303-.173l-.018-.693h-1.842v.003c-.596.013-2.374.058-2.734.155-.436.114-.895.448-.895.448l.18-.613h-1.723l-.36 1.217-1.8 6.041h-.35l-.342 1.138h3.432l-.115.379h1.691l.112-.38h.475l.372-1.228zm-1.409-4.742c-.276.077-.79.312-.79.312l.458-1.52H41.6l-.33 1.107s-.424.025-.707.101zm.027 2.173s-.43.054-.713.119c-.28.086-.802.355-.802.355l.472-1.582h1.376l-.333 1.108zm-.767 2.582h-1.374l.398-1.335h1.37l-.394 1.335zm3.307-3.69h1.98l-.285.932h-2.006l-.301 1.02h1.755l-1.329 1.894a.549.549 0 0 1-.269.227.782.782 0 0 1-.357.104h-.487l-.334 1.117h1.273c.662 0 1.053-.305 1.342-.705l.912-1.263.195 1.282c.042.24.212.381.328.436.127.064.259.175.445.192.2.009.344.015.44.015h.625l.376-1.25h-.247c-.141 0-.385-.023-.427-.068-.041-.055-.041-.139-.064-.267l-.198-1.285h-.813l.356-.43h2.002l.308-1.019h-1.853l.288-.932h1.848l.343-1.15h-5.51l-.336 1.15zm-16.72 3.95l.463-1.556h1.898l.347-1.157h-1.9l.29-.958h1.857l.344-1.12h-4.647l-.337 1.12h1.056l-.282.958h-1.058l-.351 1.177h1.055l-.616 2.058c-.083.273.04.377.117.503a.51.51 0 0 0 .34.251c.186.042.313.068.487.068h2.14l.382-1.282-.95.132c-.182 0-.69-.023-.635-.194zm.218-7.448l-.48.88c-.104.192-.197.312-.28.367-.074.046-.22.065-.43.065h-.251l-.336 1.127h.834c.401 0 .709-.15.856-.223.158-.086.2-.037.322-.156l.281-.247h2.604l.346-1.173h-1.906l.332-.64h-1.892zm3.844 7.47c-.044-.064-.012-.178.056-.415l.712-2.385h2.531c.37-.005.636-.01.809-.022a1.64 1.64 0 0 0 .61-.208c.227-.127.343-.26.442-.413.11-.153.286-.487.437-1.003l.894-3.017-2.627.015s-.809.121-1.165.254c-.36.15-.873.565-.873.565l.237-.827h-1.623l-2.272 7.628a4.77 4.77 0 0 0-.147.64c-.004.139.173.277.288.38.136.104.337.088.53.104.203.016.491.026.89.026h1.247l.383-1.309-1.117.107a.293.293 0 0 1-.242-.12zm1.227-4.41h2.66l-.17.536c-.024.012-.08-.027-.351.006h-2.303l.164-.542zm.532-1.8h2.682l-.193.647s-1.264-.013-1.466.025c-.89.156-1.411.638-1.411.638l.388-1.31zm2.018 4.132a.287.287 0 0 1-.106.166c-.054.035-.141.048-.272.048h-.379l.023-.654h-1.576l-.064 3.194c-.003.23.02.363.186.47.166.134.68.15 1.37.15h.988l.357-1.195-.86.048-.286.017c-.04-.017-.076-.032-.118-.074-.036-.037-.097-.015-.087-.245l.006-.819.902-.037c.487 0 .695-.16.873-.313.17-.147.224-.315.288-.542l.152-.725h-1.24l-.157.511z"/>
        </g>
    </g>
</svg>
