<svg xmlns="http://www.w3.org/2000/svg" width="143" height="37" viewBox="0 0 143 37">
    <g fill="none" fill-rule="evenodd">
        <path d="M-28-28h198v93H-28z"/>
        <g fill-rule="nonzero">
            <path fill="#FFF" fill-opacity=".8" d="M58.959 23.125l2.731-7.756 2.732 7.756h1.501l3.346-9.712h-1.358l-2.76 7.936-2.76-7.936h-1.316l-2.817 7.894-2.703-7.894h-1.472l3.346 9.712h1.53zm14.657.083c.63 0 1.2-.101 1.71-.305.51-.203.936-.5 1.28-.888l-.759-.86c-.553.592-1.282.888-2.188.888-.743 0-1.365-.197-1.866-.59a2.292 2.292 0 0 1-.88-1.56h6.15c.019-.167.028-.301.028-.403 0-.74-.16-1.397-.479-1.97a3.41 3.41 0 0 0-1.33-1.34c-.567-.319-1.213-.478-1.937-.478-.725 0-1.375.16-1.952.479-.577.319-1.03.765-1.359 1.339a3.807 3.807 0 0 0-.493 1.928c0 .722.17 1.37.508 1.943.338.573.817 1.02 1.437 1.339.62.319 1.33.478 2.13.478zm2.16-4.273h-4.862c.076-.63.336-1.138.78-1.526.442-.389.993-.583 1.65-.583.659 0 1.21.196 1.652.59.444.393.703.899.78 1.519zm7.893 4.301c.782 0 1.5-.13 2.152-.388a4.45 4.45 0 0 0 1.666-1.138l-.93-.874c-.762.777-1.7 1.165-2.816 1.165-.744 0-1.416-.162-2.016-.485a3.58 3.58 0 0 1-1.409-1.34 3.66 3.66 0 0 1-.508-1.907c0-.703.17-1.34.508-1.908a3.58 3.58 0 0 1 1.409-1.339c.6-.324 1.272-.486 2.016-.486 1.125 0 2.064.384 2.817 1.152l.93-.874a4.392 4.392 0 0 0-1.66-1.13 5.825 5.825 0 0 0-2.144-.382c-1.001 0-1.907.215-2.717.645a4.817 4.817 0 0 0-1.902 1.776c-.458.754-.687 1.602-.687 2.546 0 .943.23 1.792.687 2.546a4.83 4.83 0 0 0 1.894 1.776c.806.43 1.71.645 2.71.645zm7.036-.111v-3.788c0-.786.214-1.39.643-1.81.43-.421 1.016-.632 1.76-.632.657 0 1.162.18 1.515.541.353.361.53.898.53 1.61v4.079h1.372v-4.232c0-1.045-.284-1.838-.85-2.38-.568-.54-1.333-.811-2.296-.811a3.97 3.97 0 0 0-1.552.291 2.827 2.827 0 0 0-1.122.819V12.83h-1.373v10.295h1.373zm10.582.083c.581 0 1.084-.09 1.509-.27.424-.18.75-.442.98-.784v.971h1.3v-4.44c0-.99-.278-1.734-.836-2.234-.558-.5-1.361-.75-2.41-.75-.61 0-1.187.082-1.73.244a4.197 4.197 0 0 0-1.401.7l.572 1c.295-.241.657-.433 1.086-.576a4.124 4.124 0 0 1 1.316-.215c.667 0 1.173.152 1.516.457.343.306.515.745.515 1.319v.263h-2.174c-1.058 0-1.83.197-2.317.59-.486.393-.729.913-.729 1.56 0 .648.255 1.17.765 1.569.51.397 1.19.596 2.038.596zm.229-1.026c-.525 0-.935-.107-1.23-.32a1.02 1.02 0 0 1-.443-.874c0-.758.581-1.137 1.744-1.137h2.117v1.026a1.96 1.96 0 0 1-.83.965c-.381.226-.834.34-1.358.34zm8.708 1.026c.315 0 .62-.044.916-.132a2.07 2.07 0 0 0 .743-.381l-.429-.957c-.295.23-.653.346-1.072.346-.382 0-.675-.106-.88-.319-.205-.212-.307-.518-.307-.915v-3.983h2.173v-1.096h-2.173v-1.61h-1.373v1.61h-1.287v1.096h1.287v4.038c0 .74.21 1.309.63 1.707.419.397 1.01.596 1.772.596zm8.795-.083v-2.941h2.474c1.296 0 2.316-.301 3.06-.902.744-.602 1.115-1.43 1.115-2.484s-.371-1.882-1.115-2.484c-.744-.6-1.764-.901-3.06-.901h-3.904v9.712h1.43zm2.43-4.149h-2.43V14.62h2.43c.907 0 1.598.187 2.074.562.477.374.715.913.715 1.616 0 .703-.238 1.242-.715 1.616-.476.375-1.167.562-2.073.562zm8.266 4.232c.582 0 1.085-.09 1.509-.27.424-.18.75-.442.98-.784v.971h1.3v-4.44c0-.99-.278-1.734-.836-2.234-.557-.5-1.36-.75-2.41-.75-.61 0-1.186.082-1.73.244a4.197 4.197 0 0 0-1.401.7l.572 1c.296-.241.658-.433 1.087-.576a4.124 4.124 0 0 1 1.315-.215c.668 0 1.173.152 1.516.457.343.306.515.745.515 1.319v.263h-2.174c-1.058 0-1.83.197-2.316.59-.486.393-.73.913-.73 1.56 0 .648.256 1.17.766 1.569.51.397 1.189.596 2.037.596zm.23-1.026c-.525 0-.935-.107-1.23-.32a1.02 1.02 0 0 1-.444-.874c0-.758.582-1.137 1.745-1.137h2.116v1.026a1.96 1.96 0 0 1-.83.965c-.38.226-.834.34-1.358.34zm6.291 3.718c.61 0 1.132-.153 1.566-.458.434-.305.813-.832 1.137-1.582l3.675-8.089h-1.344l-2.617 5.883-2.646-5.883h-1.43l3.347 7.34-.244.514c-.18.416-.383.71-.607.88-.224.172-.503.257-.837.257-.515 0-.968-.18-1.358-.54l-.587.998c.23.222.517.39.865.507.348.115.708.173 1.08.173z"/>
            <path fill="#00C800" d="M11.846 34.511l-.431.249-1.259.725-.552.324c-.24.136-.48.276-.719.413-.436.245-.861.511-1.306.742a.722.722 0 0 1-.816-.359c-.134-.245-.054-.528.019-.778.112-.422.225-.846.342-1.269.118-.422.225-.849.337-1.273.063-.23.127-.46.181-.691.065-.21.118-.422.158-.638.03-.29-.028-.581-.165-.838a1.635 1.635 0 0 0-.415-.45c-.298-.225-.594-.45-.883-.674a22.563 22.563 0 0 1-1.25-1.108c-.254-.25-.505-.505-.746-.768-.189-.208-.377-.416-.561-.632a17.839 17.839 0 0 1-1.247-1.68l-.141-.224c-.259-.41-.497-.83-.719-1.26-.153-.306-.3-.614-.44-.925-.047-.12-.098-.239-.146-.357-.176-.43-.33-.871-.464-1.317a21.59 21.59 0 0 1-.31-1.25 15.82 15.82 0 0 1-.21-1.293 14.57 14.57 0 0 1 .291-5.09c.1-.43.218-.852.357-1.27.14-.436.312-.86.485-1.283l.016-.038c.194-.424.393-.845.618-1.255a16.82 16.82 0 0 1 1.715-2.553c.074-.092.15-.183.225-.274.287-.338.59-.675.898-.989.112-.112.23-.225.347-.345a17.974 17.974 0 0 1 1.31-1.163 20.747 20.747 0 0 1 2.522-1.743c.348-.202.699-.397 1.054-.583l.244-.122a23.48 23.48 0 0 1 1.268-.583 22.532 22.532 0 0 1 3.93-1.27c.383-.092.77-.167 1.159-.237.468-.087.94-.151 1.413-.209C18.73.08 19.505.027 20.282 0h1.226a25.575 25.575 0 0 1 3.984.417 24.107 24.107 0 0 1 2.548.62c.875.263 1.734.58 2.572.946.426.185.841.391 1.259.596l.034.017c.417.225.836.45 1.241.698.9.54 1.755 1.15 2.56 1.822l.067.055a19.748 19.748 0 0 1 1.367 1.27c.307.307.588.633.872.959-.166.072-.337.145-.498.225-.19.083-.38.166-.568.252-.416.184-.833.372-1.25.562-.37.165-.74.33-1.109.498a3.983 3.983 0 0 0-.16.068c-.427.189-.853.382-1.28.57-.853.382-1.708.761-2.56 1.144-.853.382-1.694.752-2.54 1.131-.425.191-.85.38-1.276.57-.265.112-.53.236-.793.357-.166.067-.328.143-.49.213-.432.195-.865.386-1.297.579l-1.048.47-.214.094c-.428.188-.853.38-1.28.57-.853.375-1.707.753-2.56 1.135-.653.287-1.303.581-1.954.873a2.88 2.88 0 0 1-.601.208 2.16 2.16 0 0 1-1.263-.162 3.346 3.346 0 0 1-.277-.156c-.326-.239-.657-.473-.988-.707-.27-.192-.536-.385-.807-.574-.16-.113-.32-.231-.482-.345-.412-.3-.824-.595-1.235-.887l-.031-.02c-.298-.215-.598-.43-.898-.643a1.21 1.21 0 0 0-.387-.17.724.724 0 0 0-.742.858c.36.844.761 1.677 1.13 2.518l.6 1.312.232.518.337.744c.193.42.381.844.576 1.264l.371.811c.07.159.142.318.214.477.224.444.367.939.673 1.338.122.116.257.218.402.302.431.207.937.185 1.348-.06l.44-.262c.27-.152.537-.307.805-.461l2.555-1.48c.367-.21.733-.423 1.099-.638.06-.036.122-.07.184-.104.425-.243.848-.49 1.272-.736.241-.138.484-.277.723-.418l.562-.324c.423-.245.845-.492 1.27-.733l.387-.225c.299-.175.6-.347.898-.522.852-.492 1.706-.98 2.556-1.477.323-.189.649-.373.972-.562l.29-.168c.424-.246.85-.49 1.274-.739.225-.125.444-.256.665-.384.202-.113.404-.225.605-.348l2.583-1.493c.402-.235.807-.465 1.209-.702l.097-.054c.42-.24.837-.486 1.258-.728.298-.17.594-.346.899-.52.12-.067.24-.136.361-.206.404-.225.793-.477 1.21-.675.144.302.33.58.487.874.224.426.449.861.636 1.307.054.127.106.255.158.383.12.296.23.596.33.9a14.909 14.909 0 0 1 .72 3.793 14.195 14.195 0 0 1-.076 2.563c-.048.423-.119.848-.203 1.267-.084.418-.197.843-.318 1.26-.27.89-.619 1.756-1.042 2.586a16.56 16.56 0 0 1-1.613 2.555l-.337.42a18.73 18.73 0 0 1-1.251 1.384c-.266.262-.538.518-.816.766-.145.13-.293.255-.443.38-.364.307-.74.6-1.13.877l-.171.124c-.42.295-.848.576-1.287.841-.17.102-.343.201-.518.3-.245.139-.494.275-.745.403a22.43 22.43 0 0 1-2.586 1.126c-.41.152-.826.288-1.244.417-.44.13-.88.25-1.325.356-.377.094-.758.168-1.138.25l-.085.012a24.523 24.523 0 0 1-3.835.406 20.17 20.17 0 0 1-1.277 0 24.19 24.19 0 0 1-2.552-.187c-.383-.046-.764-.112-1.145-.17-.137-.023-.274-.05-.41-.071-.33-.068-.66-.134-.988-.211-.433-.102-.862-.22-1.29-.338a2.06 2.06 0 0 0-1.275.083"/>
        </g>
    </g>
</svg>
