<svg xmlns="http://www.w3.org/2000/svg" width="38" height="24" viewBox="0 0 38 24">
    <path fill="#FFF" fill-rule="nonzero" d="M17.96 21.65c.092.078.19.156.286.233a11.616 11.616 0 0 1-6.502 1.981C5.257 23.866 0 18.554 0 12 0 5.448 5.257.134 11.742.134c2.403 0 4.64.73 6.5 1.981-.095.082-.19.157-.262.24A12.798 12.798 0 0 0 13.61 12c0 3.698 1.585 7.216 4.35 9.65zM26.258.134c-2.407 0-4.64.73-6.5 1.981.095.082.19.157.262.24A12.798 12.798 0 0 1 24.39 12c0 3.696-1.585 7.211-4.35 9.65-.093.078-.19.156-.287.233a11.609 11.609 0 0 0 6.502 1.981C32.743 23.866 38 18.554 38 12 38 5.45 32.743.134 26.258.134zM19 2.678A11.873 11.873 0 0 0 14.518 12 11.87 11.87 0 0 0 19 21.323 11.876 11.876 0 0 0 23.482 12 11.873 11.873 0 0 0 19 2.678z"/>
</svg>
