<svg xmlns="http://www.w3.org/2000/svg" width="20" height="20" viewBox="0 0 20 20">
    <g fill="none" fill-rule="evenodd" transform="translate(-2 -2)">
        <path d="M0 0h24v24H0z"/>
        <circle cx="12" cy="12" r="10" fill="#9B34CD" fill-rule="nonzero"/>
        <path fill="#FFF" d="M7.5 8l4.486 7.886.28-.53 1.123-2.008L15.74 9.31h-4.705l.584 1.002h-1.307L9.015 8H18l-1.948 3.339L18 12.501l-.681 1.124-1.93-1.15-.205.352 1.927 1.149-.68 1.124-1.909-1.137L12 18.286l-2.521-4.322-1.91 1.139-.68-1.124 1.928-1.151-.205-.352-1.93 1.151L6 12.503l1.949-1.162L6 8h1.5z"/>
    </g>
</svg>
