<svg xmlns="http://www.w3.org/2000/svg" width="48" height="48" viewBox="0 0 48 48">
    <g fill="none" fill-rule="evenodd">
        <path d="M-24-24h96v96h-96z"/>
        <path fill="#0BF" fill-rule="nonzero" d="M30.882 1.017l16.06 16.097c.62.62 1.015 1.412 1.015 2.315 0 .904-.338 1.808-1.014 2.486l-24.965 25.02c-.62.622-1.409 1.017-2.31 1.017h-.113a3.365 3.365 0 0 1-2.423-1.016l-3.438-3.446c-.62-.62-.676-1.525-.169-2.202 1.409-1.864 1.24-4.632-.507-6.383-1.634-1.694-4.396-1.92-6.368-.452-.676.509-1.634.452-2.198-.17L1.014 30.84C.394 30.217 0 29.427 0 28.523c0-.904.338-1.808 1.014-2.485L26.148 1.017c1.353-1.356 3.438-1.356 4.734 0zm-2.367 2.372l-4.674 4.683 3.087 3.134-2.406 2.38-3.072-3.117L3.494 28.466l2.48 2.486c3.155-1.582 7.044-.96 9.523 1.581 2.536 2.542 3.1 6.439 1.578 9.489l2.48 2.485 17.967-17.968-3.026-2.993 2.375-2.412 3.045 3.011 4.66-4.66L28.516 3.39zm1.2 10.554l4.384 4.393-2.391 2.396-4.383-4.393 2.39-2.396z"/>
    </g>
</svg>
