<svg xmlns="http://www.w3.org/2000/svg" width="58" height="36" viewBox="0 0 58 36">
    <g fill="none" fill-rule="evenodd" transform="translate(-19 -30)">
        <rect width="96" height="96" rx="40"/>
        <path fill="#FF5E00" fill-rule="nonzero" d="M72.196 30.827c2.39 0 4.29 1.9 4.29 4.291v25.75c0 2.39-1.9 4.29-4.29 4.29H23.79c-2.39 0-4.289-1.9-4.289-4.29v-25.75c0-2.39 1.9-4.291 4.29-4.291zm-48.59 27.895h-.43v2.146c0 .306.307.613.613.613h2.267v-.307a2.459 2.459 0 0 0-2.45-2.452zm49.203 0h-.306a2.459 2.459 0 0 0-2.451 2.452v.306h2.144c.307 0 .613-.306.613-.613v-2.145zm-6.434-24.217H29.672v.307c0 3.372-2.758 6.13-6.128 6.13h-.368v14.101h.43c3.37 0 6.127 2.759 6.127 6.131v.306h36.642v-.306c0-3.372 2.758-6.13 6.128-6.13h.306V40.941h-.306c-3.37 0-6.128-2.758-6.128-6.13v-.307zM48.3 37.755c2.643 0 5.116 1.013 7.044 2.77l.248.234c1.96 1.961 3.002 4.536 3.002 7.295 0 2.759-1.103 5.334-3.002 7.296-1.96 1.9-4.534 3.004-7.292 3.004-2.757 0-5.33-1.104-7.291-3.004-1.961-1.962-3.003-4.537-3.003-7.296 0-2.759 1.103-5.334 3.003-7.295 1.96-1.962 4.534-3.004 7.291-3.004zm0 3.555a6.579 6.579 0 0 0-4.718 1.962 6.735 6.735 0 0 0-1.96 4.72c0 1.779.673 3.434 1.96 4.722a6.728 6.728 0 0 0 4.718 1.961 6.579 6.579 0 0 0 4.718-1.961 6.586 6.586 0 0 0 1.961-4.721c0-1.68-.601-3.25-1.752-4.503l-.209-.218c-1.286-1.226-2.94-1.962-4.718-1.962zm23.897-6.805h-2.144v.307a2.459 2.459 0 0 0 2.45 2.452h.307v-2.146c0-.306-.306-.613-.612-.613zm-46.2 0h-2.207c-.306 0-.613.307-.613.613v2.146h.368a2.459 2.459 0 0 0 2.451-2.452v-.307z"/>
    </g>
</svg>
