<svg xmlns="http://www.w3.org/2000/svg" width="48" height="36" viewBox="0 0 48 36">
    <g fill="none" fill-rule="evenodd">
        <path d="M-24-30h96v96h-96z"/>
        <path fill="#C32DE1" fill-rule="nonzero" d="M16.59 15.849c.91 0 1.605.69 1.605 1.594v14.618h4.548v-8.186c0-.904.696-1.595 1.605-1.595.91 0 1.606.691 1.606 1.595v8.186h4.602V19.357c0-.904.695-1.595 1.605-1.595s1.605.691 1.605 1.595v12.704h4.602v-9.462c0-.903.696-1.594 1.606-1.594.91 0 1.605.69 1.605 1.594v9.462h4.816c.91 0 1.605.69 1.605 1.594 0 .904-.696 1.595-1.605 1.595H2.355c-.91 0-1.605-.69-1.605-1.595 0-.903.696-1.594 1.605-1.594h4.816v-7.548c0-.904.696-1.595 1.606-1.595.91 0 1.605.691 1.605 1.595v7.548h4.602V17.443c0-.903.696-1.594 1.606-1.594zM31.53.75l.15.002 8.615.585a1.589 1.589 0 0 1 1.551.584c.214.266.321.638.321.957v.16l-.642 8.291a1.585 1.585 0 0 1-1.605 1.489h-.107c-.91-.053-1.552-.797-1.498-1.701l.374-4.73-11.558 8.982a1.545 1.545 0 0 1-1.98 0l-8.508-6.644-8.187 7.76c-.321.266-.75.426-1.124.426-.428 0-.856-.16-1.177-.479-.589-.637-.589-1.647.053-2.232l9.258-8.77c.535-.532 1.444-.585 2.086-.107l8.562 6.75 10.114-7.813-4.763-.319c-.91-.053-1.551-.797-1.498-1.7.053-.904.803-1.542 1.712-1.489z"/>
    </g>
</svg>
